# xmcd
#
# Track frame offsets: 
#        225
#        17620
#        35353
#        49200
#        66165
#        84668
#        99948
#        123038
#        138673
#        149758
#        166038
#        178880
#        191090
#        206645
#        225688
#        239448
#        255658
#        269078
#        295123
#        307328
#
# Disc length: 4274 seconds
#
# Revision: 3
# Processed by: cddbd v1.5.2PL0 Copyright (c) Steve Scherf et al.
# Submitted via: ExactAudioCopyFreeDBPlugin 1.0
#
DISCID=3110af14
DTITLE=Downchild Blues Band - We Deliver - Straight Up
DYEAR=2002
DGENRE=Blues
TTITLE0=It's a Matter of Time
TTITLE1=I Came for Your Daughter
TTITLE2=Understanding and Affection
TTITLE3=I've Been a Fool
TTITLE4=Tryin' to Keep Her 88's Straight
TTITLE5=Oh! Oh!
TTITLE6=I'm Alone
TTITLE7=Kissy Face
TTITLE8=Summertime Blues
TTITLE9=A Woman's Ways
TTITLE10=Every Day I Have the Blues
TTITLE11=(I Got Everthing I Need) Almost
TTITLE12=York County
TTITLE13=Can't Lose What You Ain't Never Had
TTITLE14=Flip, Flop and Fly
TTITLE15=Good Morning Blues
TTITLE16=Bring It on Home
TTITLE17=Shotgun Blues
TTITLE18=Dig Myself a Hole
TTITLE19=Everything's Gonna Be Alright
EXTD=
EXTT0=
EXTT1=
EXTT2=
EXTT3=\t\t\t\t\t\t\t
EXTT4=
EXTT5=
EXTT6=
EXTT7=
EXTT8=
EXTT9=
EXTT10=
EXTT11=
EXTT12=
EXTT13=
EXTT14=
EXTT15=
EXTT16=
EXTT17=
EXTT18=
EXTT19=
PLAYORDER=
